<?xml version="1.0" standalone="no"?>
<!DOCTYPE svg PUBLIC "-//W3C//DTD SVG 20010904//EN"
 "http://www.w3.org/TR/2001/REC-SVG-20010904/DTD/svg10.dtd">
<svg version="1.0" xmlns="http://www.w3.org/2000/svg"
 width="2560.000000pt" height="1707.000000pt" viewBox="0 0 2560.000000 1707.000000"
 preserveAspectRatio="xMidYMid meet">

<g transform="translate(0.000000,1707.000000) scale(0.100000,-0.100000)"
fill="#000000" stroke="none">
<path d="M0 8535 l0 -8535 12800 0 12800 0 0 8535 0 8535 -12800 0 -12800 0 0
-8535z m8864 7553 c-3 -29 -15 -166 -27 -304 l-22 -252 278 -118 c153 -65 280
-121 282 -124 2 -3 -130 -36 -293 -74 -163 -37 -298 -69 -299 -70 -1 -1 -14
-137 -29 -301 -14 -165 -28 -302 -30 -304 -5 -6 5 -23 -163 259 -84 140 -154
256 -155 258 -2 1 -131 -27 -287 -63 -156 -36 -289 -64 -296 -63 -8 2 73 103
182 227 107 124 195 229 195 235 -1 6 -70 126 -155 266 -84 140 -152 257 -150
259 2 2 130 -51 284 -117 l281 -120 197 229 c109 125 201 228 206 228 4 1 5
-23 1 -51z m-4354 -1468 c127 -393 254 -784 281 -867 l50 -153 932 -2 932 -3
-735 -534 c-404 -293 -743 -541 -752 -550 -17 -15 -2 -64 268 -895 157 -483
284 -879 282 -881 -2 -1 -338 242 -748 541 -410 299 -748 543 -751 543 -3 1
-343 -244 -755 -543 -412 -300 -750 -544 -751 -543 -1 1 126 396 283 877 156
481 284 879 284 885 0 5 -335 253 -745 550 -409 297 -745 543 -745 547 0 5
417 9 927 10 l927 3 285 878 c157 482 288 872 292 865 4 -7 111 -335 239 -728z
m6060 -507 c151 74 276 134 278 132 1 -1 -61 -123 -139 -270 -97 -183 -139
-272 -133 -281 5 -7 101 -108 213 -223 112 -116 198 -211 192 -211 -7 0 -143
23 -303 51 -235 41 -293 48 -299 37 -5 -7 -71 -130 -146 -273 -125 -238 -137
-257 -144 -230 -4 17 -24 152 -45 300 -20 149 -40 273 -43 277 -4 4 -137 30
-296 58 -160 28 -294 52 -300 54 -5 1 115 64 268 139 276 135 279 137 273 164
-3 15 -21 143 -41 283 -19 140 -38 266 -40 280 -4 18 59 -40 213 -198 l217
-223 275 134z m-255 -2449 c55 -152 103 -281 106 -286 5 -8 98 -7 309 1 167 6
304 10 306 9 1 -2 -105 -88 -237 -191 -131 -104 -239 -192 -239 -197 0 -5 45
-132 100 -282 55 -150 99 -276 97 -281 -1 -4 -115 68 -254 162 l-251 169 -241
-189 c-133 -104 -243 -189 -245 -189 -2 0 35 133 81 296 47 162 83 297 81 299
-2 2 -117 80 -256 173 l-252 169 87 6 c49 4 188 10 310 13 l221 7 84 293 c45
162 85 294 88 294 3 0 50 -124 105 -276z m-1480 -1516 c-8 -62 -27 -567 -22
-575 3 -5 132 -56 286 -113 154 -58 281 -107 281 -110 0 -3 -132 -41 -292 -85
-161 -43 -294 -80 -295 -80 -2 -1 -9 -138 -18 -305 -8 -166 -16 -304 -18 -306
-2 -2 -74 106 -162 239 -87 133 -163 248 -169 255 -9 9 -73 -5 -303 -68 -161
-44 -295 -80 -298 -80 -3 0 75 100 174 223 98 123 184 233 192 244 11 19 -3
44 -154 274 -92 139 -165 254 -163 256 2 2 128 -44 281 -102 153 -58 283 -105
289 -104 6 0 94 105 196 234 102 129 188 234 192 234 4 1 5 -14 3 -31z"/>
</g>
</svg>
